<svg height="6.459755mm" viewBox="0 0 49.071957 6.4597545" width="49.071957mm" xmlns="http://www.w3.org/2000/svg"><path d="m83.468423 115.27136c0-.52705-.4953-.67945-.90805-.6604v.0825c.24765.006.43815.0889.43815.25373 0 .11457-.0825.26035-.3302.26035-.19685 0-.57785-.1143-.88265-.2159-.33655-.1143-.65405-.22225-.92075-.22225-.5207 0-.9144.38762-.9144.8636 0 .38762.2921.52705.41275.57812l.0381-.0635c-.0762-.0511-.1524-.10795-.1524-.26035 0-.11457.1016-.29872.3683-.29872.2413 0 .5588.10795.9779.2286.36195.1016.762.19685.9779.22252v.82523l-.4064.33682v.0318l.4064.3556v1.13665c-.20955.12065-.45085.1524-.6604.1524-.38735 0-.75565-.1016-1.04775-.42545l1.0922-.52705v-1.82245l-1.33985.5969c.1397-.3556.4191-.59055.70485-.762l-.019-.0635c-.79375.2159-1.51765.94588-1.51765 1.84785 0 1.0795.8763 1.87933 1.87325 1.87933 1.0795 0 1.7653-.84428 1.7526-1.73963l-.0635-.006c-.15875.3429-.38735.66675-.6858.8382v-1.1049l.4318-.3429-.006-.0381-.42545-.34317v-.82523c.3937 0 .80645-.2667.80645-.76835zm-2.31775 2.95275-.32385.15875c-.18415-.2413-.3048-.56515-.3048-1.016 0-.18415.019-.41302.0762-.5715l.5588-.24765zm2.82575.59055-.3556.26696.0445.0505.17145-.12065.5969.54584.8001-.5334-.0381-.0571-.20955.13335-.26035-.26009v-1.8288l.2159-.15901.4572.3683v1.61951c0 1.00939-.22225 1.17449-.67945 1.33985v.0701c.75565.0315 1.4351-.22251 1.4351-1.51765v-1.74016l.2413-.19077-.0445-.0569-.20955.16484-.65405-.56515-.762.5715v-2.19684h-.0572l-.94615.635v.0572c.0952.0574.254.0952.254.41301zm4.8768-.28575-.65405.508-.67945-.53367v-.3175l1.26365-.84428v-.0384l-.62865-.9652-1.37795.73686v1.75234l-.27305.20981.0445.0569.24765-.19685.9017.65431 1.2065-.9525zm-1.3335-.43815v-1.3081l.0445-.0318.5842.92075zm6.43864-3.0607c0-.0826-.0191-.1524-.0508-.24739h-.0635c-.0825.22225-.18415.34264-.4445.34264-.2286 0-.4064-.13944-.50165-.2413 0 .006-.762.88265-.762.88265l.0635.0574.2159-.24765c.1651.127.28548.24765.65405.25373v2.2225l-1.5621-2.70536c-.12065-.2032-.32385-.508-.6985-.508-.4191 0-.80645.36221-.75565.97181h.0762c.0191-.1651.1016-.3429.28575-.3429.14605 0 .2794.13944.34925.2667v.86995c-.4826 0-.8001.22225-.8001.61569 0 .20346.1016.5461.43815.60986l.006-.0574c-.0445-.0444-.0892-.095-.0892-.18388 0-.14605.10795-.2413.3048-.2413.0318 0 .12065.006.1397.0127v1.1303c-.56515.006-1.0033.31723-1.0033.8509 0 .508.43815.7493.89535.72363l.006-.0632c-.28575-.0318-.43815-.1651-.43815-.34925 0-.2286.1651-.34898.37465-.34898.2159 0 .4064.13335.53975.28575l.76835-.85725-.0635-.0574-.19685.22225c-.2921-.26009-.4572-.3556-.79375-.40614v-2.67388l2.15265 3.75312h.1524v-3.74042c.41301-.0251.80036-.33628.80036-.79983zm1.92405 3.49885-.65405.50826-.67945-.53366v-.3175l1.26365-.84429v-.0384l-.62865-.9652-1.37795.73686v1.75234l-.27305.20981.0445.0569.24765-.19685.9017.65432 1.2065-.9525-.0508-.0701zm-1.3335-.43815v-1.3081l.0445-.0318.5842.92075zm5.702027-1.4605-.19685.14605-.507997-.4318-.59055.53366.2413.22834v2.01295l-.6477-.41275v-1.6383l.20955-.14605-.6223-.57812-.57785.53367.2413.22833v1.91162l-.0825.0505-.56515-.40005v-1.60629c0-.3683-.1778-.47625-.41275-.6223-.19685-.12065-.28575-.22225-.28575-.4064 0-.1524.1524-.2413.2286-.28575-.006-.006-.006-.0635-.006-.0635-.2032-.006-.76835.2159-.78105.73051-.006.2667.12065.38074.254.508.13335.12674.254.24765.254.46964v1.54305l-.28575.22225.0445.0574.26035-.2032.70485.55245.66675-.45085.7366.45085 1.41605-.8255v-1.79096l.349247-.254-.0445-.0635zm4.94665-1.46685-.2667.2413-.5969-.52097-.86995.64797v-.6096h-.0889l.019 4.32435c-.0889-.0127-.31115-.0635-.51435-.095l-.019-3.61342c0-.2667-.1905-.635-.66675-.635-.48895 0-.80645.37465-.80645.7493h.0762c.0254-.15875.10795-.29845.2667-.29845.1651 0 .3048.1016.3048.4572v1.0414c-.48895.019-.76835.2921-.76835.62865 0 .20955.0953.5334.43815.5461l.0127-.0635c-.1143-.0505-.1397-.12065-.1397-.18415 0-.15213.14605-.21563.34925-.21563h.0952v1.651c-.38735.13335-.56515.4191-.56515.74295 0 .4445.3556.78105.8763.78105.3683 0 .6858-.0635 1.02235-.1397.27305-.0572.60325-.12065.762-.12065.2032 0 .2921.0952.2921.2413 0 .18388-.0826.254-.1905.28575l.0127.0635c.43815-.0825.69215-.34317.69215-.7366 0-.4064-.38735-.6477-.81915-.6477-.22225 0-.6604.0699-.9906.14631-.3683.0823-.74295.12039-.85725.12039-.18415 0-.41275-.0889-.41275-.33655 0-.22225.18415-.40005.64135-.40005.24765 0 .52705.0381.83185.10768.32385.0701.6096.15902.889.15902.38735 0 .7366-.1397.7366-.70485v-3.28957l.31115-.26696zm-1.0922 1.64465c-.0699.0762-.18415.1524-.3175.1524-.14605 0-.254-.0889-.32385-.1524v-1.18745l.27305-.18415.3683.33655zm0 .79375c-.0635-.0632-.1778-.13335-.3175-.13335s-.2667.0823-.32385.13335v-.6985c.0572.0505.18415.13943.32385.13943s.254-.0759.3175-.13943zm0 1.2446c0 .2159-.14605.42518-.42545.42518-.0445 0-.17145-.006-.2159-.0124v-1.5621c.0635-.0574.1778-.14631.32385-.14631.13335 0 .2413.0765.3175.14631zm3.6449-1.89257-.8636-.61595-1.2954.74322v1.7399l-.2667.2159.0381.0569.20955-.17119.85725.62865 1.3208-.80645zm-1.41605 1.68302v-1.905l.6731.4826v1.905zm3.9624-2.22885c0 .006-.0508 0-.0508 0-.0699.0632-.15875.10768-.23495.10768-.1016 0-.23495-.0632-.29845-.14578h-.0508l-.45085.49503-.46355-.49503-.7874.54583.0381.0632.20955-.13943.27305.2921v1.68275l-.3556.26696.0445.0505.17145-.12065.64135.54584.83185-.55245-.0381-.0572-.23495.1397-.31115-.27967v-1.87325c.13335.14632.2921.27332.47625.27332.3556.00052.55245-.39318.59055-.79957zm3.20675 2.55905-.90805.5969-1.2319-1.86055.86995-1.35229.0572-.006c.1016.1016.2794.20955.4445.20955.18415 0 .31115-.1016.38735-.20955 0 0 .0508.006.0508 0-.0317.53975-.3937.84455-.66675.84455-.2794 0-.41275-.127-.5588-.2159l-.0825.12065 1.3335 1.97485.2667-.1651zm-2.9337-.1524-.3556.26696.0444.0505.17145-.12065.5969.54584.8001-.5334-.0445-.0571-.2032.13335-.26035-.26009v-4.12115h-.0572l-.9652.64135v.0572c.0952.0571.27305.0825.27305.4064zm7.35939-3.5433c0-.52705-.4953-.67945-.90805-.6604v.0825c.24765.006.43815.0889.43815.25373 0 .11457-.0825.26035-.3302.26035-.19685 0-.57785-.1143-.88265-.2159-.33655-.1143-.65405-.22225-.92075-.22225-.5207 0-.9144.38762-.9144.8636 0 .38762.2921.52705.41275.57812l.0381-.0635c-.0762-.0508-.1524-.10769-.1524-.26009 0-.11456.1016-.29871.3683-.29871.2413 0 .5588.10795.9779.2286.36195.1016.762.19685.9779.22251v.82524l-.4064.33681v.0318l.4064.3556v1.13665c-.20955.12065-.45085.1524-.6604.1524-.38735 0-.75565-.1016-1.04775-.42545l1.0922-.52705v-1.82271l-1.33985.59716c.1397-.35586.4191-.59055.70485-.76226l-.019-.0635c-.79375.2159-1.51765.94615-1.51765 1.84785 0 1.0795.8763 1.87933 1.87325 1.87933 1.0795 0 1.7653-.84428 1.7526-1.73963l-.0635-.006c-.15875.3429-.38735.66675-.6858.8382v-1.1049l.4318-.3429-.006-.0381-.42545-.34317v-.82523c.3937 0 .80645-.2667.80645-.76835zm-2.31775 2.95275-.32385.15875c-.18415-.2413-.3048-.56515-.3048-1.016 0-.18415.019-.41302.0762-.5715l.5588-.24765-.006 1.6764zm3.23215-3.20067-.0381-.006-.5334.45085v.0381l.45085.508h.0445l.5334-.4445-.006-.0318-.45085-.51461zm.8128 3.94362-.2032.13335-.26035-.26009v-1.84203l.254-.1905-.0508-.0632-.19685.15214-.46355-.55245-.762.53366.0445.0699.1905-.12726.23495.2921v1.7272l-.3429.26008.0381.0508.1778-.127.5842.5334.8001-.5334zm4.445-.0318-.1905.127-.28575-.26035v-1.80975l.27305-.2032-.0445-.0574-.23495.1778-.6096-.56515-.7874.5588-.60325-.5588-.7747.55245-.47625-.55245-.762.53366.0381.0699.1905-.12726.26035.28575v1.7272l-.20955.20955.6096.51408.59055-.5334-.2413-.22833v-1.80314l.2286-.1524.41275.38074v1.61316l-.2032.20955.61595.51409.57785-.5334-.2413-.22834v-1.81636l.2032-.13335.43815.37465v1.5875l-.1778.18415.6223.56515.81915-.55854zm2.31775-.4064-.65405.50826-.67945-.53366v-.3175l1.26365-.84429v-.0384l-.62865-.9652-1.37795.73686v1.80975l.92075.66649 1.2065-.9525zm-1.3335-.43815v-1.3081l.0445-.0318.5842.92075zm3.7719-.24871-.51435-.38735c.3429-.29845.47625-.69877.47625-.97155 0-.0381-.006-.10795-.0127-.17145h-.0635c-.0508.1397-.1524.26035-.36195.26035-.2032 0-.34925-.1143-.47625-.25427l-1.20015.65432v.97155l.4445.34925c-.45085.40005-.5334.67945-.5334.88265 0 .2667.12065.45746.34925.5461l.0317-.0574c-.0571-.0505-.10795-.0826-.10795-.2032 0-.0889.10795-.2159.31115-.2159.26035 0 .4191.1778.50165.27305 0-.006 1.1557-.69215 1.1557-.69215zm-.28575-.80037c-.1778.3175-.59055.62892-.81915.80672l-.2921-.2286v-.94615c.1143.254.3937.4699.6985.4699.1778 0 .27305-.032.41275-.10187zm-.4699 2.12117c-.13335-.29845-.4445-.51435-.762-.51435-.0762 0-.29845 0-.50165.12726.12065-.20346.47625-.58446.93345-.85725l.3302.254z" stroke-width=".264583" transform="translate(-79.785473 -114.60941)"/></svg>